<svg width="136" height="24" viewBox="0 0 136 24" fill="none" xmlns="http://www.w3.org/2000/svg">
<path d="M12 18.26L4.94701 22.208L6.52201 14.28L0.587006 8.792L8.61401 7.84L12 0.5L15.386 7.84L23.413 8.792L17.478 14.28L19.053 22.208L12 18.26Z" fill="#FFC300"/>
<path d="M40 18.26L32.947 22.208L34.522 14.28L28.587 8.792L36.614 7.84L40 0.5L43.386 7.84L51.413 8.792L45.478 14.28L47.053 22.208L40 18.26Z" fill="#FFC300"/>
<path d="M68 18.26L60.947 22.208L62.522 14.28L56.587 8.792L64.614 7.84L68 0.5L71.386 7.84L79.413 8.792L73.478 14.28L75.053 22.208L68 18.26Z" fill="#FFC300"/>
<path d="M96 18.26L88.947 22.208L90.522 14.28L84.587 8.792L92.614 7.84L96 0.5L99.386 7.84L107.413 8.792L101.478 14.28L103.053 22.208L96 18.26Z" fill="#FFC300"/>
<path d="M124 18.26L116.947 22.208L118.522 14.28L112.587 8.792L120.614 7.84L124 0.5L127.386 7.84L135.413 8.792L129.478 14.28L131.053 22.208L124 18.26Z" fill="#FFC300"/>
</svg>
